<?xml version="1.0" ?><!DOCTYPE svg  PUBLIC '-//W3C//DTD SVG 1.1//EN'  'http://www.w3.org/Graphics/SVG/1.1/DTD/svg11.dtd'><svg enable-background="new 0 0 50 50" height="50px" id="Layer_1" version="1.1" viewBox="0 0 50 50" width="50px" xml:space="preserve" xmlns="http://www.w3.org/2000/svg" xmlns:xlink="http://www.w3.org/1999/xlink"><rect fill="none" height="50" width="50"/><g><circle cx="13" cy="44" fill="none" r="5" stroke="#000000" stroke-miterlimit="10" stroke-width="2"/></g><g><circle cx="39" cy="44" fill="none" r="5" stroke="#000000" stroke-miterlimit="10" stroke-width="2"/></g><path d="M45,44h2c1.018,0,2-0.982,2-2c0,0,0-7.867,0-9.615  c0-1.749-1.414-3.729-1.414-3.729l-4.125-5.502C42.617,22.137,41.355,21,40,21h-8c-1.018,0-2,0.983-2,2v19c0,1.014,0.988,1.992,2,2  h2 M49,33c0,0-10,0-11,0s-2-1-2-2c0-0.577,0-2.488,0-4c0-1.107,1-2,2-2s6.846,0,6.846,0" fill="none" stroke="#000000" stroke-miterlimit="10" stroke-width="2"/><path d="M18,44h10.154C29.17,44,30,43.171,30,42.154V16  c0-1.017-2.137-2.077-3.154-2.077h-24C1.829,13.923,1,14.752,1,15.769V42c0,1.018,0.983,2,2,2h5" fill="none" stroke="#000000" stroke-miterlimit="10" stroke-width="2"/></svg>